<svg xmlns="http://www.w3.org/2000/svg" width="200" height="100" viewBox="0 0 200 100"><path fill="#ED1C24" d="M177.547 10.51C118.84 20.474 64.36-13.005 17.392 9.446 4.017 15.84 5.017 23.074 5.017 28.082v41.726c0 19.3 10.314 19.67 29.75 23.243 37.506 6.892 93.403 6.885 130.908-.01 19.433-3.57 29.75-3.936 29.75-23.232V28.082c0-12.56-8.998-19.08-17.878-17.573z"/><path fill="#FFF" d="M153.616 27.758c1.203 0 2.244.442 3.094 1.292.85.85 1.292 1.89 1.292 3.094s-.442 2.244-1.292 3.094c-.85.85-1.89 1.292-3.094 1.292s-2.245-.442-3.095-1.292c-.85-.85-1.292-1.89-1.292-3.094 0-1.203.442-2.245 1.293-3.094.85-.85 1.893-1.292 3.096-1.292zm3.777 35.556h-7.495V38.096h7.495v25.218zm-126.6-25.04c9.255-1.365 17.41 1.095 17.41 12.252 0 13.707-14.327 16.192-24.904 11.23V27.778h7.495v10.495zm0 6.914v11.328c2.61.553 6.144.694 8.18-1.358 2.172-2.188 2.03-6.64.072-8.926-2.058-2.408-5.552-1.51-8.25-1.044zm23.12-17.43c1.203 0 2.244.442 3.093 1.292.85.85 1.292 1.89 1.292 3.094s-.442 2.244-1.292 3.094c-.85.85-1.89 1.292-3.093 1.292-1.204 0-2.245-.442-3.095-1.292-.85-.85-1.292-1.89-1.292-3.094 0-1.203.442-2.245 1.292-3.094.85-.85 1.89-1.292 3.095-1.292zm3.775 35.556h-7.495V38.096h7.495v25.218zm50.148-17.764v17.764h-7.495v-15.81c0-.713-.106-1.522-.52-2.124-.456-.66-1.155-.863-1.93-.863-.666 0-1.328.07-1.978.21-.555.12-1.087.322-1.592.58v18.007h-7.495V40.006c3.314-2.173 11.213-3.204 14.993-2.087 1.016.3 1.963.75 2.834 1.346.694-.298 1.416-.583 2.128-.786 1.87-.575 3.813-.922 5.775-.922 2.69 0 5.628.54 7.486 2.665 1.873 2.14 2.296 5.35 2.296 8.087v15.004H113.9V46.297c0-.513-.18-.917-.565-1.255-.498-.437-1.32-.525-1.952-.525-.637 0-1.287.13-1.896.31-.582.174-1.133.414-1.65.723zm31.81.886c-.585-3.648-7.45-2.667-10.39-1.877v-6.224c3.955-1.654 11.678-2.077 15.245.654 2.067 1.583 2.828 4.24 2.828 6.785v15.85l-.344.158c-1.382.637-2.89 1.073-4.37 1.404-1.818.406-3.686.574-5.546.574-3.31 0-7.44-.447-10.054-2.7-3.66-3.158-3.746-9.4.072-12.63 3.378-2.854 8.422-2.438 12.56-1.994zm.188 9.637V53.04c-1.988-.944-5.47-1.16-7.188.045-1.37.96-1.254 2.245-.03 3.084 1.663 1.14 5.496.854 7.218-.097zm20.48 6.898l-.43-.122v-6.87c1.505.442 3.95.947 6.107.958 3.653.02 5.137-1.783 2.037-4.086-3.11-2.312-7.242-3.923-6.987-8.804.156-2.99 2.544-5.625 6.666-6.255 2.187-.33 4.615-.133 6.742.446v6.395c-1.195-.21-2.508-.382-3.593-.44-2.43-.133-2.5 1.44-.116 2.395 4.072 1.632 8.027 4.656 7.35 9.59-.4 2.91-2.55 5.595-6.105 6.758-3.72 1.22-8.383.983-11.672.038zm-83.27.12c-5.458.808-9.83 1.344-14.006-3.126-4.522-4.843-4.63-13.933-.063-18.723 2.762-2.897 6.615-3.815 10.5-3.815 2.938 0 8.362 1.292 11.064 2.56 0 8.408.005 16.816.005 25.224 0 2.524-.755 4.814-2.805 6.385-4.058 3.108-10.504 2.185-15.137 1.202V66.2c4.222.768 10.45 1.014 10.44-3.11zm0-6.912v-11.33c-1.105-.234-2.28-.42-3.392-.42-8.55 0-8.588 12.88-.063 12.284 1.15-.082 2.3-.336 3.453-.534zm94.95 15.762c.256.227.505.344.768.344.36 0 .57-.205.57-.52 0-.366-.277-.513-.584-.79-.55-.497-.835-.893-.835-1.544 0-.9.557-1.508 1.375-1.508.3 0 .578.088.88.256v.922c-.302-.146-.514-.233-.697-.233-.3 0-.51.205-.51.513 0 .357.24.57.606.885.513.438.827.74.827 1.47 0 .937-.563 1.536-1.5 1.536-.352 0-.644-.078-.9-.247V71.94zm-5.246 1.33c-1.142 0-1.83-.978-1.83-2.67 0-1.704.72-2.677 1.83-2.677 1.12 0 1.837.987 1.837 2.75 0 1.618-.74 2.598-1.837 2.598zm.797-2.67c0-1.126-.263-1.682-.797-1.682-.533 0-.79.556-.79 1.683 0 1.12.257 1.677.79 1.677.534 0 .797-.557.797-1.676zm-9.315-2.61h.895c1.608 0 2.4.854 2.4 2.61 0 1.023-.265 1.735-.9 2.218-.454.343-.96.387-1.61.387h-.784V67.99zm1.114 4.25c.732 0 1.143-.557 1.143-1.625 0-1.134-.375-1.675-1.156-1.675h-.065v3.3h.08zm-6.666-4.25h1.09l1.156 5.215h-1.04l-.173-.914h-1.046l-.16.915h-1.04l1.214-5.216zm.87 3.49c-.152-.777-.262-1.582-.344-2.408-.102.768-.22 1.572-.35 2.407h.695zm-5.822 1.79c-1.31 0-2.245-1.037-2.245-2.625 0-1.67.922-2.722 2.202-2.722.234 0 .446.036.65.124v.974c-.204-.08-.387-.117-.57-.117-.666 0-1.17.63-1.17 1.684 0 1.025.526 1.64 1.192 1.64.184 0 .366-.045.55-.125v1.047c-.214.085-.418.12-.608.12zm-8.363-5.28h1.083c1.155 0 1.697.416 1.697 1.47 0 .73-.264 1.185-.827 1.368l1.003 2.377h-1.1l-.85-2.166v2.165h-1.008V67.99zm1.126 2.267c.446 0 .68-.25.68-.746s-.196-.716-.658-.716c-.044 0-.088 0-.14.007v1.45c.037 0 .08.007.117.007zm-6.952-2.268h2.196v.964h-1.185v1.054h1.074v.96h-1.075v1.22h1.184v1.018h-2.196V67.99zm-7.55 0h1.34l.27 1.99c.074.554.133 1.11.17 1.682.08-.85.14-1.405.183-1.683l.336-1.99h1.325l.44 5.215h-1.054l-.11-2.422c-.02-.482-.058-1.082-.058-1.814l-.68 4.235h-.754l-.637-4.265c0 .658-.052 1.272-.088 1.858l-.163 2.406h-1.03l.512-5.215zm-6.54 0h1.083c1.157 0 1.698.416 1.698 1.47 0 .73-.264 1.185-.827 1.368l1.004 2.377h-1.098l-.85-2.166v2.165h-1.01V67.99h.002zm1.127 2.267c.445 0 .68-.25.68-.746s-.197-.716-.658-.716c-.044 0-.088 0-.14.007v1.45c.037 0 .082.007.118.007zm-6.95-2.268h2.194v.964h-1.186v1.054h1.074v.96h-1.074v1.22h1.185v1.018h-2.196V67.99zm-6.256 0h1.082c1.14 0 1.696.48 1.696 1.514 0 .98-.562 1.543-1.535 1.543-.073 0-.154 0-.234-.008v2.165h-1.01V67.99zm1.118 2.267c.438 0 .68-.256.68-.738 0-.492-.21-.726-.68-.726-.036 0-.073.007-.11.007v1.45c.037 0 .074.007.11.007zm-4.836.855v.155c0 .563-.007.98-.153 1.265-.257.512-.732.738-1.472.738s-1.223-.227-1.48-.738c-.145-.292-.152-.71-.152-1.265V67.99h1.038v3.356c0 .673.045 1.01.594 1.01.534 0 .593-.307.593-1.01V67.99h1.032v3.122zm-9.124.828c.256.227.505.344.77.344.358 0 .57-.205.57-.52 0-.366-.28-.513-.586-.79-.55-.497-.834-.893-.834-1.544 0-.9.556-1.508 1.375-1.508.3 0 .58.088.878.256v.922c-.298-.146-.51-.233-.694-.233-.3 0-.512.205-.512.513 0 .357.24.57.606.885.513.438.827.74.827 1.47 0 .937-.563 1.536-1.5 1.536-.35 0-.644-.078-.9-.247V71.94zm86.605-33.08c.474.473.73 1.11.73 1.79 0 .692-.257 1.315-.738 1.782-.502.488-1.14.757-1.804.757-.67 0-1.3-.27-1.79-.758-.48-.48-.742-1.11-.742-1.783 0-.674.27-1.317.765-1.813.467-.474 1.082-.73 1.77-.73.692.002 1.322.264 1.81.752zm-.212.21c-.43-.43-.983-.657-1.6-.657-.6 0-1.145.22-1.556.637-.438.438-.672 1.005-.672 1.6 0 .587.233 1.14.657 1.57.424.432.983.66 1.563.66.6 0 1.16-.228 1.6-.66.416-.41.65-.955.65-1.557 0-.608-.225-1.175-.642-1.592zm-.317.886c0 .404-.255.7-.68.77l.65 1.33h-.545l-.607-1.258h-.615v1.26h-.488v-2.902h1.075c.806 0 1.21.255 1.21.8zm-1.798-.48v1.003h.51c.537 0 .784-.12.784-.49 0-.374-.255-.515-.8-.515h-.495z"/></svg>